<?xml version="1.0" encoding="utf-8"?>
<!-- Generator: Adobe Illustrator 28.0.0, SVG Export Plug-In . SVG Version: 6.00 Build 0)  -->
<svg version="1.1" id="Vrstva_1" xmlns="http://www.w3.org/2000/svg" xmlns:xlink="http://www.w3.org/1999/xlink" x="0px" y="0px"
	 viewBox="0 0 314 18.5" style="enable-background:new 0 0 314 18.5;" xml:space="preserve">
<g id="XMLID_00000077312752444028747220000000272603174804710834_">
	<g>
		<g id="XMLID_00000015339474321263036530000015909791132267303080_">
			<g id="XMLID_00000016776241499583456900000005249293809570852737_">
				<path id="XMLID_00000058547326305938880990000007604120800852544150_" d="M49.4,14.9l4-3.6c0.7-0.6,1.5-1.3,2.3-2.3
					c0.9-1,1.1-1.5,1.1-2.2c0-1.2-0.7-2-1.8-2C53.2,4.7,53,6.5,53,7h-3.4c0-0.6,0-1.8,0.9-2.9c0.9-1.1,2.5-1.7,4.4-1.7
					c3.3,0,5.2,1.8,5.2,4.2c0,1.6-0.6,3.6-7.3,9c2.2,0,2.5-0.1,4.2-0.1c2.3,0,2.6,0,3.1-0.1V18H49.4V14.9z"/>
				<path id="XMLID_00000030487297033777310820000013756148058334812593_" d="M66.4,2.4c2.2,0,3.4,1.2,4,2c0.8,1.2,1.4,2.7,1.4,5.5
					c0,3.6-0.8,8.3-5.4,8.3c-3.9,0-5.3-3.8-5.3-7.9C61.1,8.3,61.5,2.4,66.4,2.4z M68.1,6.7c-0.1-0.4-0.5-1.8-1.7-1.8
					c-0.9,0-1.4,0.9-1.5,1.3c-0.5,1.6-0.5,3.9-0.5,4.3c0,2.6,0.4,5.1,2,5.1c1.8,0,2.1-3,2.1-5.1C68.5,9.5,68.4,7.7,68.1,6.7z"/>
				<path id="XMLID_00000050647172224006692120000010863941524969760917_" d="M72.1,14.9l4-3.6c0.7-0.6,1.5-1.3,2.3-2.3
					c0.9-1,1.1-1.5,1.1-2.2c0-1.2-0.7-2-1.8-2c-1.8,0-1.9,1.8-1.9,2.2h-3.4c0-0.6,0-1.8,0.9-2.9c0.9-1.1,2.5-1.7,4.4-1.7
					c3.3,0,5.2,1.8,5.2,4.2c0,1.6-0.6,3.6-7.3,9c2.2,0,2.5-0.1,4.2-0.1c2.3,0,2.6,0,3.1-0.1V18H72.1V14.9z"/>
				<path id="XMLID_00000078041293483682631860000007755055058631292087_" d="M87,14.2c0.1,0.9,0.7,1.5,1.6,1.5
					c2.3,0,2.5-2.4,2.4-4.5c-1.1,1-2.1,1.1-2.8,1.1c-3.8,0-4.7-3-4.7-4.8c0-2.9,2.1-5,5.4-5c5.3,0,5.4,5,5.4,7.5
					c0,6.5-2.2,8.3-5.9,8.3c-0.9,0-4.8,0-4.8-4L87,14.2L87,14.2z M90.9,7.3c0-1.3-0.7-2.3-2.1-2.3c-1.6,0-2.1,1.2-2.1,2.4
					c0,0.5,0.2,2.4,2.1,2.4C90.4,9.8,90.9,8.3,90.9,7.3z"/>
				<path id="XMLID_00000131332823838848377460000013087043775508981637_" d="M112.8,10c0,4.6-3.7,8.3-8.3,8.3
					c-4.6,0-8.3-3.7-8.3-8.3c0-4.7,3.8-8.3,8.3-8.3C109,1.7,112.8,5.4,112.8,10z M97.5,10c0,3.8,3.1,6.9,6.9,6.9c3.9,0,7-3.2,7-7
					c0-3.8-3.2-6.9-7-6.9C100.7,3.1,97.5,6.2,97.5,10z M106.3,8.3c0-0.3-0.2-1.7-1.7-1.7c-2.3,0-2.3,2.9-2.3,3.5
					c0,0.6,0,3.4,2.2,3.4c0.8,0,1.7-0.5,1.8-1.8h2.3c0,0.5-0.1,1.5-1,2.3c-0.8,0.8-1.9,1-2.9,1c-3.5,0-4.7-2.4-4.7-4.8
					c0-3,1.8-5.1,4.7-5.1c2.2,0,3.8,1.2,3.8,3.2C108.5,8.3,106.3,8.3,106.3,8.3z"/>
			</g>
			<g id="XMLID_00000003823555126231366910000000920322764365461142_">
				<g id="XMLID_00000014599770682002069740000008473451819737688966_">
					<polygon id="XMLID_00000003790531298085403580000005126636310137230989_" points="36.5,3.1 27.7,11.8 29.5,3.1 22.3,3.1 
						19.9,18 27.7,18 43.3,3.1 					"/>
				</g>
				<path id="XMLID_00000024723072974112243030000008652084622027171737_" d="M20.4,4.4c-0.7-1.2-2.4-1.8-5.1-1.8
					c-5,0-9.1,1.9-11.1,5.3c-0.8,1.4-1,2.5-0.6,3.4c0.5,0.9,1.9,1.4,4,1.4c1.6,0,3-0.4,4.6-1.1c-1.2,1.9-2.5,3.8-4.7,3.8
					c-0.3,0-0.8-0.1-0.8-0.3c-0.1-0.2,0-0.6,0.2-1.1l0.1-0.3h-6l-0.1,0.1c-0.6,1.1-1,2-0.6,2.9c0.5,1.2,1.9,1.6,5.3,1.6
					c3.3,0,6-0.7,8.3-2.3c1.9-1.3,3.6-3.1,5.2-5.7C20.7,7.7,21.1,5.7,20.4,4.4z M10.5,7.7c0.7-1.2,2.1-2.1,3.2-2.1
					c0.3,0,0.7,0.1,0.9,0.4c0.2,0.3,0.1,0.9-0.3,1.5c-0.8,1.3-2.1,2.1-3.3,2.1c-0.3,0-0.7-0.1-0.9-0.4C9.9,8.9,10.1,8.3,10.5,7.7z"
					/>
			</g>
		</g>
		<g id="XMLID_00000049923663830771375180000006977704979501298329_">
			<g id="XMLID_00000018935602171131039090000009791733814874715066_">
				<g id="XMLID_00000000203013574166338710000012931355560928985223_">
					<g id="XMLID_00000095337213199527541980000004401009104156560797_">
						<polygon id="XMLID_00000147208921574551550260000014761228900094654906_" points="167.5,3.1 162,12.2 162.9,3.1 153.6,3.1 
							144.6,18 150.4,18 156.3,8.3 155.3,18 164.3,18 173.3,3.1 						"/>
					</g>
					<g id="XMLID_00000114033596898057557300000010734327028884364707_">
						<polygon id="XMLID_00000018948914277764162650000000193446649511373460_" points="175.2,3.1 166.2,18 172.8,18 181.8,3.1 
													"/>
					</g>
					<g id="XMLID_00000072265767375630578390000009196278898410658697_">
						<polygon id="XMLID_00000033349052757617467260000012381450662992544142_" points="197.6,3.1 192.1,12.2 193,3.1 183.7,3.1 
							174.7,18 180.5,18 186.4,8.3 185.4,18 194.4,18 203.4,3.1 						"/>
					</g>
					<g id="XMLID_00000154422138615957923170000010079290289874629284_">
						<polygon id="XMLID_00000096021415697932051260000017891974900799971220_" points="196.3,18 210.8,18 212.9,14.5 204.8,14.5 
							206.2,12.3 213.7,12.3 215.8,8.8 208.3,8.8 209.6,6.5 217.6,6.5 219.7,3.1 205.3,3.1 						"/>
					</g>
					<g id="XMLID_00000035503197677902631250000002759457719464516756_">
						<path id="XMLID_00000125588540646231846350000008052966641004743573_" d="M269.4,8.4c1.1-1.8,1.3-3.1,0.8-4s-1.8-1.4-3.9-1.4
							h-10.4l-9,14.9h6.6l2.8-4.7h4.6C263.4,13.3,266.9,12.5,269.4,8.4z M263.1,8c-0.8,1.3-1.8,1.8-3.9,1.8h-0.9l2-3.3h1.7
							c1,0,1.3,0.2,1.4,0.4C263.5,7.1,263.4,7.5,263.1,8z"/>
					</g>
					<g id="XMLID_00000132794546595140551410000007671344035238252976_">
						<polygon id="XMLID_00000173139623684723881970000016649549431479056063_" points="273.3,14.5 274.6,12.3 282.1,12.3 
							284.2,8.8 276.7,8.8 278.1,6.5 286,6.5 288.1,3.1 273.7,3.1 264.8,18 279.2,18 281.3,14.5 						"/>
					</g>
					<g id="XMLID_00000040551821390419375920000011058801318061485210_">
						<path id="XMLID_00000060709554176392782750000003293611887476054165_" d="M305,4.4c-0.5-0.9-2-1.3-4.8-1.3h-10.4l-9,14.9h6.6
							l3.2-5.3h1.7c0.7,0,1.5,0,1.6,0.2c0.1,0.2-0.1,0.9-0.4,1.5l-1.6,3.5h6.6l2.2-5c0.3-0.7,0.3-1.2,0.1-1.6
							c-0.2-0.3-0.5-0.5-1-0.6c1.9-0.5,3.7-1.8,4.7-3.4C305.2,6.1,305.4,5.1,305,4.4z M297.7,7.8c-0.7,1.1-1.7,1.7-3.2,1.7h-1.9
							l1.8-3.1h2.1c1,0,1.3,0.2,1.4,0.4C298,7.1,297.8,7.5,297.7,7.8z"/>
					</g>
					<g id="XMLID_00000007420672342249538700000001398846808253009555_">
						<polygon id="XMLID_00000167382894684709175800000003940628987527264701_" points="239.5,3.1 230.8,11.8 232.6,3.1 225.4,3.1 
							223,18 230.8,18 246.4,3.1 						"/>
					</g>
					<g id="XMLID_00000052807359815283633830000008544451769010803862_">
						<polygon id="XMLID_00000084507259040987366310000008499866151018738057_" points="247.3,3.1 238.3,18 244.9,18 253.9,3.1 
													"/>
					</g>
				</g>
			</g>
			<g id="XMLID_00000118362434748018728800000017882752952528511121_">
				<g id="XMLID_00000070083583129129314960000007846245293572233647_">
					<g id="XMLID_00000147205793706554312060000015630032904982196917_">
						<path id="XMLID_00000023254093559703683830000000171807516145553293_" d="M311,6c1.6,0,2.9-1.3,2.9-2.9c0-1.6-1.3-2.9-2.9-2.9
							c-1.5,0-2.9,1.3-2.9,2.9S309.4,6,311,6z M311,0.5c1.5,0,2.6,1.2,2.6,2.6c0,1.4-1.1,2.6-2.6,2.6c-1.4,0-2.6-1.1-2.6-2.6
							C308.4,1.6,309.6,0.5,311,0.5z"/>
					</g>
					<g id="XMLID_00000144319857289594920700000002639583271173501337_">
						<path id="XMLID_00000048479552129064846420000001198692208660707456_" d="M310.3,3.2h0.5c0.5,0,0.6,0.1,0.7,0.6
							c0.1,0.5,0.1,0.6,0.1,0.8h0.5C312,4.3,312,4,312,3.6c0-0.4-0.1-0.5-0.5-0.6c0.6-0.2,0.6-0.7,0.6-0.8c0-0.8-0.8-0.8-1.1-0.8
							h-1.1v3.1h0.4V3.2z M310.3,1.8h0.7c0.2,0,0.6,0,0.6,0.5c0,0.5-0.4,0.5-0.6,0.5h-0.7V1.8z"/>
					</g>
				</g>
			</g>
		</g>
	</g>
</g>
</svg>
